<svg width="1845" height="182" viewBox="0 0 1845 182" fill="none" xmlns="http://www.w3.org/2000/svg">
<mask id="path-1-outside-1_174_28" maskUnits="userSpaceOnUse" x="-1" y="-1" width="1847" height="184" fill="black">
<rect fill="white" x="-1" y="-1" width="1847" height="184"/>
<path d="M189.391 181.25C177.391 181.25 168.057 179.417 161.391 175.75C154.724 172.083 149.974 166.417 147.141 158.75C144.474 150.917 143.141 140.5 143.141 127.5V31.25L80.6406 170H75.6406L10.6406 28.75V170H0.640626V4.99999H24.3906L84.3906 135L143.141 4.99999H165.641V127.5C165.641 143 167.557 155 171.391 163.5C175.391 172 181.391 176.25 189.391 176.25V181.25ZM286.811 175C270.477 175 255.811 171 242.811 163C229.977 155 219.894 144.167 212.561 130.5C205.394 116.667 201.811 101.5 201.811 85C201.811 69.1667 204.977 54.8333 211.311 42C217.644 29 226.644 18.75 238.311 11.25C250.144 3.74999 263.811 -1.78814e-06 279.311 -1.78814e-06C293.644 -1.78814e-06 305.977 1.91667 316.311 5.75C326.811 9.41666 334.477 14.1667 339.311 20C341.977 23.3333 343.644 27.75 344.311 33.25C345.144 38.75 345.561 45.5833 345.561 53.75H340.561C337.394 39.0833 331.394 28.1667 322.561 21C313.727 13.6667 301.811 9.99999 286.811 9.99999C273.311 9.99999 262.061 13.5833 253.061 20.75C244.061 27.75 237.394 36.9167 233.061 48.25C228.894 59.5833 226.811 71.8333 226.811 85C226.811 113.167 232.311 133.583 243.311 146.25C254.311 158.75 268.811 165 286.811 165C295.311 165 302.561 164.25 308.561 162.75C314.561 161.25 320.227 159.083 325.561 156.25V112.75C325.561 107.083 326.477 102.167 328.311 98C330.144 93.8333 334.061 90.4167 340.061 87.75C346.227 84.9167 355.144 83.5 366.811 83.5V88.5C359.311 88.5 354.311 90.4167 351.811 94.25C349.311 98.0833 348.061 104.083 348.061 112.25V159.25C339.061 164.75 329.644 168.75 319.811 171.25C309.977 173.75 298.977 175 286.811 175ZM477.992 170C471.826 170 467.159 169.25 463.992 167.75C460.992 166.083 458.826 163.167 457.492 159C456.159 154.833 455.492 148.5 455.492 140V4.99999H477.992V140C477.992 148.5 479.159 154.833 481.492 159C483.826 163 488.492 165 495.492 165H500.492V170H477.992ZM542.031 38.75V170H532.031V35C532.031 27 530.281 20.8333 526.781 16.5C523.448 12.1667 517.698 9.99999 509.531 9.99999H507.031V4.99999H523.281C530.948 4.99999 537.448 6.24999 542.781 8.74999C548.115 11.25 552.865 15 557.031 20L644.531 128.75V4.99999H654.531V172.5H649.531L542.031 38.75ZM713.174 38.75V170H703.174V35C703.174 27 701.424 20.8333 697.924 16.5C694.59 12.1667 688.84 9.99999 680.674 9.99999H678.174V4.99999H694.424C702.09 4.99999 708.59 6.24999 713.924 8.74999C719.257 11.25 724.007 15 728.174 20L815.674 128.75V4.99999H825.674V172.5H820.674L713.174 38.75ZM935.816 175C920.316 175 906.65 171.167 894.816 163.5C883.15 155.833 874.15 145.333 867.816 132C861.483 118.667 858.316 103.833 858.316 87.5C858.316 71.1667 861.483 56.3333 867.816 43C874.15 29.6667 883.15 19.1667 894.816 11.5C906.65 3.83333 920.316 -1.78814e-06 935.816 -1.78814e-06C951.316 -1.78814e-06 964.9 3.83333 976.566 11.5C988.4 19.1667 997.483 29.6667 1003.82 43C1010.15 56.3333 1013.32 71.1667 1013.32 87.5C1013.32 103.833 1010.15 118.667 1003.82 132C997.483 145.333 988.4 155.833 976.566 163.5C964.9 171.167 951.316 175 935.816 175ZM935.816 165C946.65 165 955.983 161.833 963.816 155.5C971.816 149.167 977.9 140.25 982.066 128.75C986.233 117.083 988.316 103.333 988.316 87.5C988.316 71.6667 986.233 58 982.066 46.5C977.9 34.8333 971.816 25.8333 963.816 19.5C955.983 13.1667 946.65 9.99999 935.816 9.99999C924.983 9.99999 915.566 13.1667 907.566 19.5C899.733 25.8333 893.733 34.8333 889.566 46.5C885.4 58 883.316 71.6667 883.316 87.5C883.316 103.333 885.4 117.083 889.566 128.75C893.733 140.25 899.733 149.167 907.566 155.5C915.566 161.833 924.983 165 935.816 165ZM1040.89 34.25C1036.73 24.5833 1032.81 18 1029.14 14.5C1025.48 10.8333 1020.23 8.66666 1013.39 8V2.99999C1014.23 2.99999 1015.48 2.91666 1017.14 2.74999C1018.64 2.58333 1020.23 2.5 1021.89 2.5C1030.23 2.5 1038.23 4.66666 1045.89 8.99999C1053.56 13.1667 1060.06 21.5833 1065.39 34.25L1108.14 135L1122.89 100.75C1129.89 84.5833 1143.31 52.6667 1163.14 4.99999H1175.14L1103.39 172.5H1098.89L1040.89 34.25ZM1315.06 171.25C1307.06 171.25 1299.14 169.083 1291.31 164.75C1283.48 160.25 1277.23 151.583 1272.56 138.75L1266.31 122.5H1196.31L1176.31 170H1165.06L1235.06 4.99999H1242.56L1297.56 138.75C1301.73 148.417 1305.64 155.083 1309.31 158.75C1312.98 162.25 1318.23 164.333 1325.06 165V170C1322.06 170.833 1318.73 171.25 1315.06 171.25ZM1200.06 112.5H1261.31L1231.31 40L1200.06 112.5ZM1367.12 15H1344.62C1323.78 15 1313.37 24.5833 1313.37 43.75H1308.37V25C1308.37 11.6667 1315.45 4.99999 1329.62 4.99999H1445.87V15H1389.62V170H1367.12V15ZM1493.62 170C1487.45 170 1482.78 169.25 1479.62 167.75C1476.62 166.083 1474.45 163.167 1473.12 159C1471.78 154.833 1471.12 148.5 1471.12 140V4.99999H1493.62V140C1493.62 148.5 1494.78 154.833 1497.12 159C1499.45 163 1504.12 165 1511.12 165H1516.12V170H1493.62ZM1607.45 175C1591.95 175 1578.28 171.167 1566.45 163.5C1554.78 155.833 1545.78 145.333 1539.45 132C1533.11 118.667 1529.95 103.833 1529.95 87.5C1529.95 71.1667 1533.11 56.3333 1539.45 43C1545.78 29.6667 1554.78 19.1667 1566.45 11.5C1578.28 3.83333 1591.95 -1.78814e-06 1607.45 -1.78814e-06C1622.95 -1.78814e-06 1636.53 3.83333 1648.2 11.5C1660.03 19.1667 1669.11 29.6667 1675.45 43C1681.78 56.3333 1684.95 71.1667 1684.95 87.5C1684.95 103.833 1681.78 118.667 1675.45 132C1669.11 145.333 1660.03 155.833 1648.2 163.5C1636.53 171.167 1622.95 175 1607.45 175ZM1607.45 165C1618.28 165 1627.61 161.833 1635.45 155.5C1643.45 149.167 1649.53 140.25 1653.7 128.75C1657.86 117.083 1659.95 103.333 1659.95 87.5C1659.95 71.6667 1657.86 58 1653.7 46.5C1649.53 34.8333 1643.45 25.8333 1635.45 19.5C1627.61 13.1667 1618.28 9.99999 1607.45 9.99999C1596.61 9.99999 1587.2 13.1667 1579.2 19.5C1571.36 25.8333 1565.36 34.8333 1561.2 46.5C1557.03 58 1554.95 71.6667 1554.95 87.5C1554.95 103.333 1557.03 117.083 1561.2 128.75C1565.36 140.25 1571.36 149.167 1579.2 155.5C1587.2 161.833 1596.61 165 1607.45 165ZM1732.22 38.75V170H1722.22V35C1722.22 27 1720.47 20.8333 1716.97 16.5C1713.63 12.1667 1707.88 9.99999 1699.72 9.99999H1697.22V4.99999H1713.47C1721.13 4.99999 1727.63 6.24999 1732.97 8.74999C1738.3 11.25 1743.05 15 1747.22 20L1834.72 128.75V4.99999H1844.72V172.5H1839.72L1732.22 38.75Z"/>
</mask>
<path d="M189.391 181.25C177.391 181.25 168.057 179.417 161.391 175.75C154.724 172.083 149.974 166.417 147.141 158.75C144.474 150.917 143.141 140.5 143.141 127.5V31.25L80.6406 170H75.6406L10.6406 28.75V170H0.640626V4.99999H24.3906L84.3906 135L143.141 4.99999H165.641V127.5C165.641 143 167.557 155 171.391 163.5C175.391 172 181.391 176.25 189.391 176.25V181.25ZM286.811 175C270.477 175 255.811 171 242.811 163C229.977 155 219.894 144.167 212.561 130.5C205.394 116.667 201.811 101.5 201.811 85C201.811 69.1667 204.977 54.8333 211.311 42C217.644 29 226.644 18.75 238.311 11.25C250.144 3.74999 263.811 -1.78814e-06 279.311 -1.78814e-06C293.644 -1.78814e-06 305.977 1.91667 316.311 5.75C326.811 9.41666 334.477 14.1667 339.311 20C341.977 23.3333 343.644 27.75 344.311 33.25C345.144 38.75 345.561 45.5833 345.561 53.75H340.561C337.394 39.0833 331.394 28.1667 322.561 21C313.727 13.6667 301.811 9.99999 286.811 9.99999C273.311 9.99999 262.061 13.5833 253.061 20.75C244.061 27.75 237.394 36.9167 233.061 48.25C228.894 59.5833 226.811 71.8333 226.811 85C226.811 113.167 232.311 133.583 243.311 146.25C254.311 158.75 268.811 165 286.811 165C295.311 165 302.561 164.25 308.561 162.75C314.561 161.25 320.227 159.083 325.561 156.25V112.75C325.561 107.083 326.477 102.167 328.311 98C330.144 93.8333 334.061 90.4167 340.061 87.75C346.227 84.9167 355.144 83.5 366.811 83.5V88.5C359.311 88.5 354.311 90.4167 351.811 94.25C349.311 98.0833 348.061 104.083 348.061 112.25V159.25C339.061 164.75 329.644 168.75 319.811 171.25C309.977 173.75 298.977 175 286.811 175ZM477.992 170C471.826 170 467.159 169.25 463.992 167.75C460.992 166.083 458.826 163.167 457.492 159C456.159 154.833 455.492 148.5 455.492 140V4.99999H477.992V140C477.992 148.5 479.159 154.833 481.492 159C483.826 163 488.492 165 495.492 165H500.492V170H477.992ZM542.031 38.75V170H532.031V35C532.031 27 530.281 20.8333 526.781 16.5C523.448 12.1667 517.698 9.99999 509.531 9.99999H507.031V4.99999H523.281C530.948 4.99999 537.448 6.24999 542.781 8.74999C548.115 11.25 552.865 15 557.031 20L644.531 128.75V4.99999H654.531V172.5H649.531L542.031 38.75ZM713.174 38.75V170H703.174V35C703.174 27 701.424 20.8333 697.924 16.5C694.59 12.1667 688.84 9.99999 680.674 9.99999H678.174V4.99999H694.424C702.09 4.99999 708.59 6.24999 713.924 8.74999C719.257 11.25 724.007 15 728.174 20L815.674 128.75V4.99999H825.674V172.5H820.674L713.174 38.75ZM935.816 175C920.316 175 906.65 171.167 894.816 163.5C883.15 155.833 874.15 145.333 867.816 132C861.483 118.667 858.316 103.833 858.316 87.5C858.316 71.1667 861.483 56.3333 867.816 43C874.15 29.6667 883.15 19.1667 894.816 11.5C906.65 3.83333 920.316 -1.78814e-06 935.816 -1.78814e-06C951.316 -1.78814e-06 964.9 3.83333 976.566 11.5C988.4 19.1667 997.483 29.6667 1003.82 43C1010.15 56.3333 1013.32 71.1667 1013.32 87.5C1013.32 103.833 1010.15 118.667 1003.82 132C997.483 145.333 988.4 155.833 976.566 163.5C964.9 171.167 951.316 175 935.816 175ZM935.816 165C946.65 165 955.983 161.833 963.816 155.5C971.816 149.167 977.9 140.25 982.066 128.75C986.233 117.083 988.316 103.333 988.316 87.5C988.316 71.6667 986.233 58 982.066 46.5C977.9 34.8333 971.816 25.8333 963.816 19.5C955.983 13.1667 946.65 9.99999 935.816 9.99999C924.983 9.99999 915.566 13.1667 907.566 19.5C899.733 25.8333 893.733 34.8333 889.566 46.5C885.4 58 883.316 71.6667 883.316 87.5C883.316 103.333 885.4 117.083 889.566 128.75C893.733 140.25 899.733 149.167 907.566 155.5C915.566 161.833 924.983 165 935.816 165ZM1040.89 34.25C1036.73 24.5833 1032.81 18 1029.14 14.5C1025.48 10.8333 1020.23 8.66666 1013.39 8V2.99999C1014.23 2.99999 1015.48 2.91666 1017.14 2.74999C1018.64 2.58333 1020.23 2.5 1021.89 2.5C1030.23 2.5 1038.23 4.66666 1045.89 8.99999C1053.56 13.1667 1060.06 21.5833 1065.39 34.25L1108.14 135L1122.89 100.75C1129.89 84.5833 1143.31 52.6667 1163.14 4.99999H1175.14L1103.39 172.5H1098.89L1040.89 34.25ZM1315.06 171.25C1307.06 171.25 1299.14 169.083 1291.31 164.75C1283.48 160.25 1277.23 151.583 1272.56 138.75L1266.31 122.5H1196.31L1176.31 170H1165.06L1235.06 4.99999H1242.56L1297.56 138.75C1301.73 148.417 1305.64 155.083 1309.31 158.75C1312.98 162.25 1318.23 164.333 1325.06 165V170C1322.06 170.833 1318.73 171.25 1315.06 171.25ZM1200.06 112.5H1261.31L1231.31 40L1200.06 112.5ZM1367.12 15H1344.62C1323.78 15 1313.37 24.5833 1313.37 43.75H1308.37V25C1308.37 11.6667 1315.45 4.99999 1329.62 4.99999H1445.87V15H1389.62V170H1367.12V15ZM1493.62 170C1487.45 170 1482.78 169.25 1479.62 167.75C1476.62 166.083 1474.45 163.167 1473.12 159C1471.78 154.833 1471.12 148.5 1471.12 140V4.99999H1493.62V140C1493.62 148.5 1494.78 154.833 1497.12 159C1499.45 163 1504.12 165 1511.12 165H1516.12V170H1493.62ZM1607.45 175C1591.95 175 1578.28 171.167 1566.45 163.5C1554.78 155.833 1545.78 145.333 1539.45 132C1533.11 118.667 1529.95 103.833 1529.95 87.5C1529.95 71.1667 1533.11 56.3333 1539.45 43C1545.78 29.6667 1554.78 19.1667 1566.45 11.5C1578.28 3.83333 1591.95 -1.78814e-06 1607.45 -1.78814e-06C1622.95 -1.78814e-06 1636.53 3.83333 1648.2 11.5C1660.03 19.1667 1669.11 29.6667 1675.45 43C1681.78 56.3333 1684.95 71.1667 1684.95 87.5C1684.95 103.833 1681.78 118.667 1675.45 132C1669.11 145.333 1660.03 155.833 1648.2 163.5C1636.53 171.167 1622.95 175 1607.45 175ZM1607.45 165C1618.28 165 1627.61 161.833 1635.45 155.5C1643.45 149.167 1649.53 140.25 1653.7 128.75C1657.86 117.083 1659.95 103.333 1659.95 87.5C1659.95 71.6667 1657.86 58 1653.7 46.5C1649.53 34.8333 1643.45 25.8333 1635.45 19.5C1627.61 13.1667 1618.28 9.99999 1607.45 9.99999C1596.61 9.99999 1587.2 13.1667 1579.2 19.5C1571.36 25.8333 1565.36 34.8333 1561.2 46.5C1557.03 58 1554.95 71.6667 1554.95 87.5C1554.95 103.333 1557.03 117.083 1561.2 128.75C1565.36 140.25 1571.36 149.167 1579.2 155.5C1587.2 161.833 1596.61 165 1607.45 165ZM1732.22 38.75V170H1722.22V35C1722.22 27 1720.47 20.8333 1716.97 16.5C1713.63 12.1667 1707.88 9.99999 1699.72 9.99999H1697.22V4.99999H1713.47C1721.13 4.99999 1727.63 6.24999 1732.97 8.74999C1738.3 11.25 1743.05 15 1747.22 20L1834.72 128.75V4.99999H1844.72V172.5H1839.72L1732.22 38.75Z" fill="url(#paint0_linear_174_28)" fill-opacity="0.88"/>
<path d="M189.391 181.25V182.25H190.391V181.25H189.391ZM161.391 175.75L160.909 176.626L160.909 176.626L161.391 175.75ZM147.141 158.75L146.194 159.072L146.198 159.085L146.203 159.097L147.141 158.75ZM143.141 31.25H144.141L142.229 30.8393L143.141 31.25ZM80.6406 170V171H81.2869L81.5524 170.411L80.6406 170ZM75.6406 170L74.7322 170.418L75 171H75.6406V170ZM10.6406 28.75L11.5491 28.332L9.64063 28.75H10.6406ZM10.6406 170V171H11.6406V170H10.6406ZM0.640626 170H-0.359374V171H0.640626V170ZM0.640626 4.99999V3.99999H-0.359374V4.99999H0.640626ZM24.3906 4.99999L25.2986 4.58094L25.0305 3.99999H24.3906V4.99999ZM84.3906 135L83.4827 135.419L84.4002 137.407L85.3019 135.412L84.3906 135ZM143.141 4.99999V3.99999H142.495L142.229 4.58817L143.141 4.99999ZM165.641 4.99999H166.641V3.99999H165.641V4.99999ZM171.391 163.5L170.479 163.911L170.482 163.918L170.486 163.926L171.391 163.5ZM189.391 176.25H190.391V175.25H189.391V176.25ZM189.391 180.25C177.471 180.25 168.33 178.425 161.873 174.874L160.909 176.626C167.785 180.408 177.31 182.25 189.391 182.25V180.25ZM161.873 174.874C155.433 171.332 150.835 165.863 148.079 158.403L146.203 159.097C149.113 166.971 154.015 172.835 160.909 176.626L161.873 174.874ZM148.087 158.428C145.47 150.74 144.141 140.446 144.141 127.5H142.141C142.141 140.554 143.478 151.093 146.194 159.072L148.087 158.428ZM144.141 127.5V31.25H142.141V127.5H144.141ZM142.229 30.8393L79.7289 169.589L81.5524 170.411L144.052 31.6607L142.229 30.8393ZM80.6406 169H75.6406V171H80.6406V169ZM76.5491 169.582L11.5491 28.332L9.7322 29.168L74.7322 170.418L76.5491 169.582ZM9.64063 28.75V170H11.6406V28.75H9.64063ZM10.6406 169H0.640626V171H10.6406V169ZM1.64063 170V4.99999H-0.359374V170H1.64063ZM0.640626 5.99999H24.3906V3.99999H0.640626V5.99999ZM23.4827 5.41905L83.4827 135.419L85.2986 134.581L25.2986 4.58094L23.4827 5.41905ZM85.3019 135.412L144.052 5.41181L142.229 4.58817L83.4794 134.588L85.3019 135.412ZM143.141 5.99999H165.641V3.99999H143.141V5.99999ZM164.641 4.99999V127.5H166.641V4.99999H164.641ZM164.641 127.5C164.641 143.06 166.561 155.224 170.479 163.911L172.302 163.089C168.553 154.776 166.641 142.94 166.641 127.5H164.641ZM170.486 163.926C172.539 168.289 175.138 171.63 178.313 173.879C181.497 176.134 185.203 177.25 189.391 177.25V175.25C185.579 175.25 182.285 174.241 179.469 172.246C176.643 170.245 174.242 167.211 172.295 163.074L170.486 163.926ZM188.391 176.25V181.25H190.391V176.25H188.391ZM242.811 163L242.282 163.849L242.286 163.852L242.811 163ZM212.561 130.5L211.673 130.96L211.676 130.966L211.679 130.973L212.561 130.5ZM211.311 42L212.207 42.4425L212.21 42.438L211.311 42ZM238.311 11.25L237.775 10.4053L237.77 10.4088L238.311 11.25ZM316.311 5.75L315.963 6.68756L315.972 6.69092L315.981 6.69409L316.311 5.75ZM339.311 20L340.091 19.3753L340.086 19.3686L340.081 19.362L339.311 20ZM344.311 33.25L343.318 33.3703L343.32 33.3851L343.322 33.3998L344.311 33.25ZM345.561 53.75V54.75H346.561V53.75H345.561ZM340.561 53.75L339.583 53.961L339.753 54.75H340.561V53.75ZM322.561 21L321.922 21.7695L321.931 21.7766L322.561 21ZM253.061 20.75L253.675 21.5394L253.683 21.5323L253.061 20.75ZM233.061 48.25L232.126 47.8928L232.122 47.9049L233.061 48.25ZM243.311 146.25L242.555 146.906L242.56 146.911L243.311 146.25ZM308.561 162.75L308.318 161.78L308.318 161.78L308.561 162.75ZM325.561 156.25L326.03 157.133L326.561 156.851V156.25H325.561ZM328.311 98L327.395 97.5973L327.395 97.5973L328.311 98ZM340.061 87.75L340.467 88.6639L340.478 88.6587L340.061 87.75ZM366.811 83.5H367.811V82.5H366.811V83.5ZM366.811 88.5V89.5H367.811V88.5H366.811ZM351.811 94.25L352.648 94.7963L352.648 94.7963L351.811 94.25ZM348.061 159.25L348.582 160.103L349.061 159.811V159.25H348.061ZM286.811 174C270.649 174 256.166 170.045 243.335 162.148L242.286 163.852C255.455 171.955 270.306 176 286.811 176V174ZM243.34 162.151C230.658 154.246 220.695 143.544 213.442 130.027L211.679 130.973C219.093 144.789 229.296 155.754 242.282 163.849L243.34 162.151ZM213.448 130.04C206.36 116.357 202.811 101.35 202.811 85H200.811C200.811 101.65 204.428 116.976 211.673 130.96L213.448 130.04ZM202.811 85C202.811 69.3036 205.949 55.1241 212.207 42.4425L210.414 41.5574C204.006 54.5425 200.811 69.0297 200.811 85H202.811ZM212.21 42.438C218.466 29.5953 227.345 19.4878 238.851 12.0912L237.77 10.4088C225.942 18.0122 216.822 28.4047 210.412 41.562L212.21 42.438ZM238.846 12.0946C250.502 4.70673 263.979 0.999998 279.311 0.999998V-1C263.642 -1 249.785 2.79326 237.775 10.4053L238.846 12.0946ZM279.311 0.999998C293.559 0.999998 305.769 2.90585 315.963 6.68756L316.658 4.81243C306.186 0.927483 293.729 -1 279.311 -1V0.999998ZM315.981 6.69409C326.384 10.3271 333.866 14.9957 338.541 20.638L340.081 19.362C335.089 13.3376 327.237 8.50626 316.64 4.80591L315.981 6.69409ZM338.53 20.6247C341.05 23.7756 342.667 28.0009 343.318 33.3703L345.303 33.1297C344.621 27.4991 342.904 22.8911 340.091 19.3753L338.53 20.6247ZM343.322 33.3998C344.145 38.8331 344.561 45.6126 344.561 53.75H346.561C346.561 45.5541 346.143 38.6669 345.299 33.1002L343.322 33.3998ZM345.561 52.75H340.561V54.75H345.561V52.75ZM341.538 53.5389C338.339 38.7211 332.25 27.5736 323.191 20.2234L321.931 21.7766C330.538 28.7597 336.449 39.4455 339.583 53.961L341.538 53.5389ZM323.199 20.2306C314.138 12.7077 301.971 8.99999 286.811 8.99999V11C301.65 11 313.317 14.6256 321.922 21.7694L323.199 20.2306ZM286.811 8.99999C273.125 8.99999 261.644 12.6365 252.438 19.9677L253.683 21.5323C262.477 14.5301 273.496 11 286.811 11V8.99999ZM252.447 19.9606C243.293 27.08 236.521 36.4003 232.126 47.8929L233.995 48.6071C238.267 37.433 244.828 28.42 253.674 21.5394L252.447 19.9606ZM232.122 47.9049C227.911 59.3583 225.811 71.7262 225.811 85H227.811C227.811 71.9404 229.877 59.8083 233.999 48.5951L232.122 47.9049ZM225.811 85C225.811 113.256 231.321 133.969 242.556 146.906L244.066 145.594C233.3 133.198 227.811 113.077 227.811 85H225.811ZM242.56 146.911C253.766 159.645 268.549 166 286.811 166V164C269.072 164 254.855 157.855 244.061 145.589L242.56 146.911ZM286.811 166C295.364 166 302.7 165.246 308.803 163.72L308.318 161.78C302.421 163.254 295.257 164 286.811 164V166ZM308.803 163.72C314.88 162.201 320.623 160.005 326.03 157.133L325.091 155.367C319.832 158.161 314.241 160.299 308.318 161.78L308.803 163.72ZM326.561 156.25V112.75H324.561V156.25H326.561ZM326.561 112.75C326.561 107.189 327.46 102.415 329.226 98.4027L327.395 97.5973C325.494 101.918 324.561 106.978 324.561 112.75H326.561ZM329.226 98.4027C330.922 94.547 334.595 91.2736 340.467 88.6638L339.654 86.8362C333.527 89.5597 329.365 93.1196 327.395 97.5973L329.226 98.4027ZM340.478 88.6587C346.452 85.9141 355.199 84.5 366.811 84.5V82.5C355.089 82.5 346.003 83.9193 339.643 86.8413L340.478 88.6587ZM365.811 83.5V88.5H367.811V83.5H365.811ZM366.811 87.5C359.194 87.5 353.752 89.4421 350.973 93.7037L352.648 94.7963C354.869 91.3912 359.428 89.5 366.811 89.5V87.5ZM350.973 93.7037C348.312 97.7831 347.061 104.022 347.061 112.25H349.061C349.061 104.145 350.309 98.3836 352.648 94.7963L350.973 93.7037ZM347.061 112.25V159.25H349.061V112.25H347.061ZM347.539 158.397C338.621 163.847 329.297 167.806 319.564 170.281L320.057 172.219C329.991 169.694 339.5 165.653 348.582 160.103L347.539 158.397ZM319.564 170.281C309.825 172.757 298.91 174 286.811 174V176C299.044 176 310.129 174.743 320.057 172.219L319.564 170.281ZM463.992 167.75L463.507 168.624L463.535 168.64L463.564 168.654L463.992 167.75ZM455.492 4.99999V3.99999H454.492V4.99999H455.492ZM477.992 4.99999H478.992V3.99999H477.992V4.99999ZM481.492 159L480.62 159.489L480.624 159.496L480.628 159.504L481.492 159ZM500.492 165H501.492V164H500.492V165ZM500.492 170V171H501.492V170H500.492ZM477.992 169C471.878 169 467.387 168.252 464.42 166.846L463.564 168.654C466.93 170.248 471.774 171 477.992 171V169ZM464.478 166.876C461.756 165.364 459.723 162.689 458.445 158.695L456.54 159.305C457.928 163.645 460.228 166.803 463.507 168.624L464.478 166.876ZM458.445 158.695C457.16 154.681 456.492 148.475 456.492 140H454.492C454.492 148.525 455.158 154.986 456.54 159.305L458.445 158.695ZM456.492 140V4.99999H454.492V140H456.492ZM455.492 5.99999H477.992V3.99999H455.492V5.99999ZM476.992 4.99999V140H478.992V4.99999H476.992ZM476.992 140C476.992 148.556 478.16 155.097 480.62 159.489L482.365 158.511C480.157 154.569 478.992 148.444 478.992 140H476.992ZM480.628 159.504C483.222 163.95 488.333 166 495.492 166V164C488.651 164 484.429 162.05 482.356 158.496L480.628 159.504ZM495.492 166H500.492V164H495.492V166ZM499.492 165V170H501.492V165H499.492ZM500.492 169H477.992V171H500.492V169ZM542.031 38.75L542.811 38.1235L541.031 35.9096V38.75H542.031ZM542.031 170V171H543.031V170H542.031ZM532.031 170H531.031V171H532.031V170ZM526.781 16.5L525.989 17.1097L525.996 17.1191L526.003 17.1283L526.781 16.5ZM507.031 9.99999H506.031V11H507.031V9.99999ZM507.031 4.99999V3.99999H506.031V4.99999H507.031ZM542.781 8.74999L543.206 7.84453L543.206 7.84453L542.781 8.74999ZM557.031 20L557.81 19.3731L557.805 19.3664L557.799 19.3598L557.031 20ZM644.531 128.75L643.752 129.377L645.531 131.588V128.75H644.531ZM644.531 4.99999V3.99999H643.531V4.99999H644.531ZM654.531 4.99999H655.531V3.99999H654.531V4.99999ZM654.531 172.5V173.5H655.531V172.5H654.531ZM649.531 172.5L648.752 173.126L649.052 173.5H649.531V172.5ZM541.031 38.75V170H543.031V38.75H541.031ZM542.031 169H532.031V171H542.031V169ZM533.031 170V35H531.031V170H533.031ZM533.031 35C533.031 26.8686 531.254 20.4462 527.559 15.8717L526.003 17.1283C529.309 21.2205 531.031 27.1314 531.031 35H533.031ZM527.574 15.8903C523.972 11.2078 517.85 8.99999 509.531 8.99999V11C517.546 11 522.924 13.1255 525.989 17.1097L527.574 15.8903ZM509.531 8.99999H507.031V11H509.531V8.99999ZM508.031 9.99999V4.99999H506.031V9.99999H508.031ZM507.031 5.99999H523.281V3.99999H507.031V5.99999ZM523.281 5.99999C530.844 5.99999 537.19 7.23352 542.357 9.65545L543.206 7.84453C537.706 5.26646 531.052 3.99999 523.281 3.99999V5.99999ZM542.357 9.65545C547.544 12.087 552.18 15.7408 556.263 20.6402L557.799 19.3598C553.549 14.2592 548.685 10.413 543.206 7.84453L542.357 9.65545ZM556.252 20.6269L643.752 129.377L645.31 128.123L557.81 19.3731L556.252 20.6269ZM645.531 128.75V4.99999H643.531V128.75H645.531ZM644.531 5.99999H654.531V3.99999H644.531V5.99999ZM653.531 4.99999V172.5H655.531V4.99999H653.531ZM654.531 171.5H649.531V173.5H654.531V171.5ZM650.311 171.874L542.811 38.1235L541.252 39.3765L648.752 173.126L650.311 171.874ZM713.174 38.75L713.953 38.1235L712.174 35.9096V38.75H713.174ZM713.174 170V171H714.174V170H713.174ZM703.174 170H702.174V171H703.174V170ZM697.924 16.5L697.131 17.1097L697.138 17.1191L697.146 17.1283L697.924 16.5ZM678.174 9.99999H677.174V11H678.174V9.99999ZM678.174 4.99999V3.99999H677.174V4.99999H678.174ZM713.924 8.74999L714.348 7.84453L714.348 7.84453L713.924 8.74999ZM728.174 20L728.953 19.3731L728.948 19.3664L728.942 19.3598L728.174 20ZM815.674 128.75L814.895 129.377L816.674 131.588V128.75H815.674ZM815.674 4.99999V3.99999H814.674V4.99999H815.674ZM825.674 4.99999H826.674V3.99999H825.674V4.99999ZM825.674 172.5V173.5H826.674V172.5H825.674ZM820.674 172.5L819.894 173.126L820.195 173.5H820.674V172.5ZM712.174 38.75V170H714.174V38.75H712.174ZM713.174 169H703.174V171H713.174V169ZM704.174 170V35H702.174V170H704.174ZM704.174 35C704.174 26.8686 702.397 20.4462 698.702 15.8717L697.146 17.1283C700.451 21.2205 702.174 27.1314 702.174 35H704.174ZM698.716 15.8903C695.115 11.2078 688.992 8.99999 680.674 8.99999V11C688.688 11 694.066 13.1255 697.131 17.1097L698.716 15.8903ZM680.674 8.99999H678.174V11H680.674V8.99999ZM679.174 9.99999V4.99999H677.174V9.99999H679.174ZM678.174 5.99999H694.424V3.99999H678.174V5.99999ZM694.424 5.99999C701.986 5.99999 708.333 7.23352 713.499 9.65545L714.348 7.84453C708.848 5.26646 702.195 3.99999 694.424 3.99999V5.99999ZM713.499 9.65545C718.687 12.087 723.323 15.7408 727.406 20.6402L728.942 19.3598C724.692 14.2592 719.828 10.413 714.348 7.84453L713.499 9.65545ZM727.395 20.6269L814.895 129.377L816.453 128.123L728.953 19.3731L727.395 20.6269ZM816.674 128.75V4.99999H814.674V128.75H816.674ZM815.674 5.99999H825.674V3.99999H815.674V5.99999ZM824.674 4.99999V172.5H826.674V4.99999H824.674ZM825.674 171.5H820.674V173.5H825.674V171.5ZM821.453 171.874L713.953 38.1235L712.394 39.3765L819.894 173.126L821.453 171.874ZM894.816 163.5L894.267 164.336L894.273 164.339L894.816 163.5ZM867.816 132L868.72 131.571L868.72 131.571L867.816 132ZM867.816 43L866.913 42.5709L867.816 43ZM894.816 11.5L894.273 10.6607L894.267 10.6643L894.816 11.5ZM976.566 11.5L976.017 12.3357L976.023 12.3393L976.566 11.5ZM1003.82 132L1002.91 131.571L1002.91 131.571L1003.82 132ZM976.566 163.5L976.023 162.661L976.017 162.664L976.566 163.5ZM963.816 155.5L963.196 154.716L963.188 154.722L963.816 155.5ZM982.066 128.75L983.007 129.091L983.008 129.086L982.066 128.75ZM982.066 46.5L981.125 46.8363L981.126 46.8406L982.066 46.5ZM963.816 19.5L963.188 20.2777L963.196 20.284L963.816 19.5ZM907.566 19.5L906.946 18.7159L906.938 18.7224L907.566 19.5ZM889.566 46.5L890.507 46.8406L890.508 46.8363L889.566 46.5ZM889.566 128.75L888.625 129.086L888.626 129.091L889.566 128.75ZM907.566 155.5L906.938 156.278L906.946 156.284L907.566 155.5ZM935.816 174C920.489 174 907.016 170.212 895.36 162.661L894.273 164.339C906.284 172.121 920.143 176 935.816 176V174ZM895.366 162.664C883.861 155.104 874.979 144.749 868.72 131.571L866.913 132.429C873.32 145.918 882.439 156.563 894.267 164.336L895.366 162.664ZM868.72 131.571C862.457 118.385 859.316 103.701 859.316 87.5H857.316C857.316 103.966 860.51 118.948 866.913 132.429L868.72 131.571ZM859.316 87.5C859.316 71.2991 862.457 56.6146 868.72 43.4291L866.913 42.5709C860.51 56.0521 857.316 71.0342 857.316 87.5H859.316ZM868.72 43.4291C874.979 30.2512 883.861 19.8959 895.366 12.3357L894.267 10.6643C882.439 18.4374 873.32 29.0821 866.913 42.5709L868.72 43.4291ZM895.36 12.3393C907.016 4.78783 920.489 0.999998 935.816 0.999998V-1C920.143 -1 906.284 2.87884 894.273 10.6607L895.36 12.3393ZM935.816 0.999998C951.144 0.999998 964.531 4.78786 976.017 12.3357L977.116 10.6643C965.268 2.87881 951.489 -1 935.816 -1V0.999998ZM976.023 12.3393C987.693 19.9003 996.655 30.2549 1002.91 43.4291L1004.72 42.5709C998.311 29.0784 989.106 18.433 977.11 10.6607L976.023 12.3393ZM1002.91 43.4291C1009.18 56.6146 1012.32 71.2991 1012.32 87.5H1014.32C1014.32 71.0342 1011.12 56.0521 1004.72 42.5709L1002.91 43.4291ZM1012.32 87.5C1012.32 103.701 1009.18 118.385 1002.91 131.571L1004.72 132.429C1011.12 118.948 1014.32 103.966 1014.32 87.5H1012.32ZM1002.91 131.571C996.655 144.745 987.693 155.1 976.023 162.661L977.11 164.339C989.106 156.567 998.311 145.922 1004.72 132.429L1002.91 131.571ZM976.017 162.664C964.531 170.212 951.144 174 935.816 174V176C951.489 176 965.268 172.121 977.116 164.336L976.017 162.664ZM935.816 166C946.86 166 956.42 162.766 964.445 156.278L963.188 154.722C955.546 160.901 946.439 164 935.816 164V166ZM964.437 156.284C972.609 149.814 978.789 140.73 983.007 129.091L981.126 128.409C977.01 139.77 971.023 148.519 963.196 154.716L964.437 156.284ZM983.008 129.086C987.222 117.286 989.316 103.418 989.316 87.5H987.316C987.316 103.249 985.244 116.88 981.125 128.414L983.008 129.086ZM989.316 87.5C989.316 71.583 987.223 57.7954 983.007 46.1593L981.126 46.8406C985.244 58.2046 987.316 71.7504 987.316 87.5H989.316ZM983.008 46.1637C978.792 34.3586 972.613 25.1882 964.437 18.7159L963.196 20.284C971.02 26.4784 977.007 35.3081 981.125 46.8363L983.008 46.1637ZM964.445 18.7224C956.42 12.2339 946.86 8.99999 935.816 8.99999V11C946.439 11 955.546 14.0994 963.188 20.2776L964.445 18.7224ZM935.816 8.99999C924.773 8.99999 915.134 12.2338 906.946 18.7159L908.187 20.284C915.999 14.0995 925.193 11 935.816 11V8.99999ZM906.938 18.7224C898.932 25.1951 892.839 34.3636 888.625 46.1637L890.508 46.8363C894.627 35.303 900.534 26.4715 908.195 20.2776L906.938 18.7224ZM888.626 46.1593C884.41 57.7954 882.316 71.583 882.316 87.5H884.316C884.316 71.7504 886.389 58.2046 890.507 46.8406L888.626 46.1593ZM882.316 87.5C882.316 103.418 884.41 117.286 888.625 129.086L890.508 128.414C886.389 116.88 884.316 103.249 884.316 87.5H882.316ZM888.626 129.091C892.842 140.725 898.935 149.807 906.938 156.278L908.195 154.722C900.531 148.526 894.625 139.775 890.507 128.409L888.626 129.091ZM906.946 156.284C915.134 162.766 924.773 166 935.816 166V164C925.193 164 915.999 160.9 908.187 154.716L906.946 156.284ZM1040.89 34.25L1041.82 33.8631L1041.81 33.8542L1040.89 34.25ZM1029.14 14.5L1028.44 15.2071L1028.45 15.2153L1028.45 15.2233L1029.14 14.5ZM1013.39 8H1012.39V8.90719L1013.3 8.99527L1013.39 8ZM1013.39 2.99999V1.99999H1012.39V2.99999H1013.39ZM1017.14 2.74999L1017.24 3.74509L1017.25 3.74388L1017.14 2.74999ZM1045.89 8.99999L1045.4 9.87055L1045.41 9.87464L1045.42 9.87861L1045.89 8.99999ZM1065.39 34.25L1064.47 34.638L1064.47 34.6406L1065.39 34.25ZM1108.14 135L1107.22 135.391L1108.14 137.544L1109.06 135.396L1108.14 135ZM1122.89 100.75L1121.98 100.353L1121.98 100.354L1122.89 100.75ZM1163.14 4.99999V3.99999H1162.48L1162.22 4.61584L1163.14 4.99999ZM1175.14 4.99999L1176.06 5.39375L1176.66 3.99999H1175.14V4.99999ZM1103.39 172.5V173.5H1104.05L1104.31 172.894L1103.39 172.5ZM1098.89 172.5L1097.97 172.887L1098.23 173.5H1098.89V172.5ZM1041.81 33.8542C1037.64 24.1684 1033.66 17.4245 1029.84 13.7766L1028.45 15.2233C1031.97 18.5755 1035.82 24.9982 1039.98 34.6458L1041.81 33.8542ZM1029.85 13.7929C1025.97 9.9159 1020.48 7.68654 1013.49 7.00472L1013.3 8.99527C1019.98 9.64678 1024.98 11.7507 1028.44 15.2071L1029.85 13.7929ZM1014.39 8V2.99999H1012.39V8H1014.39ZM1013.39 3.99999C1014.28 3.99999 1015.57 3.91241 1017.24 3.74503L1017.05 1.75496C1015.39 1.92091 1014.18 1.99999 1013.39 1.99999V3.99999ZM1017.25 3.74388C1018.71 3.58168 1020.26 3.5 1021.89 3.5V1.5C1020.19 1.5 1018.57 1.58498 1017.03 1.75611L1017.25 3.74388ZM1021.89 3.5C1030.05 3.5 1037.88 5.61708 1045.4 9.87055L1046.39 8.12942C1038.58 3.71624 1030.41 1.5 1021.89 1.5V3.5ZM1045.42 9.87861C1052.8 13.8901 1059.18 22.0676 1064.47 34.638L1066.32 33.8619C1060.94 21.0991 1054.32 12.4432 1046.37 8.12136L1045.42 9.87861ZM1064.47 34.6406L1107.22 135.391L1109.07 134.609L1066.32 33.8594L1064.47 34.6406ZM1109.06 135.396L1123.81 101.146L1121.98 100.354L1107.23 134.604L1109.06 135.396ZM1123.81 101.147C1130.82 84.973 1144.23 53.0498 1164.07 5.38415L1162.22 4.61584C1142.39 52.2835 1128.97 84.1936 1121.98 100.353L1123.81 101.147ZM1163.14 5.99999H1175.14V3.99999H1163.14V5.99999ZM1174.23 4.60624L1102.48 172.106L1104.31 172.894L1176.06 5.39375L1174.23 4.60624ZM1103.39 171.5H1098.89V173.5H1103.39V171.5ZM1099.82 172.113L1041.82 33.8631L1039.97 34.6369L1097.97 172.887L1099.82 172.113ZM1291.31 164.75L1290.81 165.617L1290.82 165.621L1290.83 165.625L1291.31 164.75ZM1272.56 138.75L1273.5 138.408L1273.5 138.4L1273.49 138.391L1272.56 138.75ZM1266.31 122.5L1267.24 122.141L1267 121.5H1266.31V122.5ZM1196.31 122.5V121.5H1195.65L1195.39 122.112L1196.31 122.5ZM1176.31 170V171H1176.97L1177.23 170.388L1176.31 170ZM1165.06 170L1164.14 169.609L1163.55 171H1165.06V170ZM1235.06 4.99999V3.99999H1234.4L1234.14 4.60944L1235.06 4.99999ZM1242.56 4.99999L1243.49 4.61968L1243.23 3.99999H1242.56V4.99999ZM1297.56 138.75L1296.64 139.13L1296.64 139.138L1296.64 139.146L1297.56 138.75ZM1309.31 158.75L1308.6 159.457L1308.61 159.465L1308.62 159.473L1309.31 158.75ZM1325.06 165H1326.06V164.093L1325.16 164.005L1325.06 165ZM1325.06 170L1325.33 170.964L1326.06 170.76V170H1325.06ZM1200.06 112.5L1199.14 112.104L1198.54 113.5H1200.06V112.5ZM1261.31 112.5V113.5H1262.81L1262.23 112.118L1261.31 112.5ZM1231.31 40L1232.23 39.6176L1231.33 37.43L1230.39 39.6042L1231.31 40ZM1315.06 170.25C1307.25 170.25 1299.5 168.136 1291.79 163.875L1290.83 165.625C1298.79 170.03 1306.87 172.25 1315.06 172.25V170.25ZM1291.81 163.883C1284.26 159.548 1278.13 151.129 1273.5 138.408L1271.62 139.092C1276.33 152.038 1282.69 160.952 1290.81 165.617L1291.81 163.883ZM1273.49 138.391L1267.24 122.141L1265.38 122.859L1271.63 139.109L1273.49 138.391ZM1266.31 121.5H1196.31V123.5H1266.31V121.5ZM1195.39 122.112L1175.39 169.612L1177.23 170.388L1197.23 122.888L1195.39 122.112ZM1176.31 169H1165.06V171H1176.31V169ZM1165.98 170.391L1235.98 5.39054L1234.14 4.60944L1164.14 169.609L1165.98 170.391ZM1235.06 5.99999H1242.56V3.99999H1235.06V5.99999ZM1241.64 5.38031L1296.64 139.13L1298.49 138.37L1243.49 4.61968L1241.64 5.38031ZM1296.64 139.146C1300.82 148.834 1304.8 155.649 1308.6 159.457L1310.02 158.043C1306.49 154.517 1302.64 147.999 1298.48 138.354L1296.64 139.146ZM1308.62 159.473C1312.5 163.175 1317.99 165.315 1324.96 165.995L1325.16 164.005C1318.47 163.352 1313.46 161.325 1310 158.027L1308.62 159.473ZM1324.06 165V170H1326.06V165H1324.06ZM1324.79 169.036C1321.89 169.842 1318.65 170.25 1315.06 170.25V172.25C1318.8 172.25 1322.23 171.825 1325.33 170.964L1324.79 169.036ZM1200.06 113.5H1261.31V111.5H1200.06V113.5ZM1262.23 112.118L1232.23 39.6176L1230.39 40.3823L1260.39 112.882L1262.23 112.118ZM1230.39 39.6042L1199.14 112.104L1200.98 112.896L1232.23 40.3958L1230.39 39.6042ZM1367.12 15H1368.12V14H1367.12V15ZM1313.37 43.75V44.75H1314.37V43.75H1313.37ZM1308.37 43.75H1307.37V44.75H1308.37V43.75ZM1445.87 4.99999H1446.87V3.99999H1445.87V4.99999ZM1445.87 15V16H1446.87V15H1445.87ZM1389.62 15V14H1388.62V15H1389.62ZM1389.62 170V171H1390.62V170H1389.62ZM1367.12 170H1366.12V171H1367.12V170ZM1367.12 14H1344.62V16H1367.12V14ZM1344.62 14C1334.06 14 1325.96 16.425 1320.5 21.4516C1315.02 26.4926 1312.37 33.9901 1312.37 43.75H1314.37C1314.37 34.3432 1316.92 27.4657 1321.85 22.9234C1326.81 18.3667 1334.33 16 1344.62 16V14ZM1313.37 42.75H1308.37V44.75H1313.37V42.75ZM1309.37 43.75V25H1307.37V43.75H1309.37ZM1309.37 25C1309.37 18.5035 1311.09 13.8107 1314.36 10.7282C1317.65 7.63498 1322.67 5.99999 1329.62 5.99999V3.99999C1322.39 3.99999 1316.79 5.69834 1312.99 9.27179C1309.18 12.856 1307.37 18.1632 1307.37 25H1309.37ZM1329.62 5.99999H1445.87V3.99999H1329.62V5.99999ZM1444.87 4.99999V15H1446.87V4.99999H1444.87ZM1445.87 14H1389.62V16H1445.87V14ZM1388.62 15V170H1390.62V15H1388.62ZM1389.62 169H1367.12V171H1389.62V169ZM1368.12 170V15H1366.12V170H1368.12ZM1479.62 167.75L1479.13 168.624L1479.16 168.64L1479.19 168.654L1479.62 167.75ZM1471.12 4.99999V3.99999H1470.12V4.99999H1471.12ZM1493.62 4.99999H1494.62V3.99999H1493.62V4.99999ZM1497.12 159L1496.24 159.489L1496.25 159.496L1496.25 159.504L1497.12 159ZM1516.12 165H1517.12V164H1516.12V165ZM1516.12 170V171H1517.12V170H1516.12ZM1493.62 169C1487.5 169 1483.01 168.252 1480.05 166.846L1479.19 168.654C1482.56 170.248 1487.4 171 1493.62 171V169ZM1480.1 166.876C1477.38 165.364 1475.35 162.689 1474.07 158.695L1472.16 159.305C1473.55 163.645 1475.85 166.803 1479.13 168.624L1480.1 166.876ZM1474.07 158.695C1472.79 154.681 1472.12 148.475 1472.12 140H1470.12C1470.12 148.525 1470.78 154.986 1472.16 159.305L1474.07 158.695ZM1472.12 140V4.99999H1470.12V140H1472.12ZM1471.12 5.99999H1493.62V3.99999H1471.12V5.99999ZM1492.62 4.99999V140H1494.62V4.99999H1492.62ZM1492.62 140C1492.62 148.556 1493.79 155.097 1496.24 159.489L1497.99 158.511C1495.78 154.569 1494.62 148.444 1494.62 140H1492.62ZM1496.25 159.504C1498.85 163.95 1503.96 166 1511.12 166V164C1504.28 164 1500.05 162.05 1497.98 158.496L1496.25 159.504ZM1511.12 166H1516.12V164H1511.12V166ZM1515.12 165V170H1517.12V165H1515.12ZM1516.12 169H1493.62V171H1516.12V169ZM1566.45 163.5L1565.9 164.336L1565.9 164.339L1566.45 163.5ZM1539.45 132L1540.35 131.571L1540.35 131.571L1539.45 132ZM1539.45 43L1538.54 42.5709L1539.45 43ZM1566.45 11.5L1565.9 10.6607L1565.9 10.6643L1566.45 11.5ZM1648.2 11.5L1647.65 12.3357L1647.65 12.3393L1648.2 11.5ZM1675.45 132L1674.54 131.571L1674.54 131.571L1675.45 132ZM1648.2 163.5L1647.65 162.661L1647.65 162.664L1648.2 163.5ZM1635.45 155.5L1634.83 154.716L1634.82 154.722L1635.45 155.5ZM1653.7 128.75L1654.64 129.091L1654.64 129.086L1653.7 128.75ZM1653.7 46.5L1652.76 46.8363L1652.76 46.8406L1653.7 46.5ZM1635.45 19.5L1634.82 20.2777L1634.83 20.284L1635.45 19.5ZM1579.2 19.5L1578.58 18.7159L1578.57 18.7224L1579.2 19.5ZM1561.2 46.5L1562.14 46.8406L1562.14 46.8363L1561.2 46.5ZM1561.2 128.75L1560.26 129.086L1560.26 129.091L1561.2 128.75ZM1579.2 155.5L1578.57 156.278L1578.58 156.284L1579.2 155.5ZM1607.45 174C1592.12 174 1578.65 170.212 1566.99 162.661L1565.9 164.339C1577.91 172.121 1591.77 176 1607.45 176V174ZM1567 162.664C1555.49 155.104 1546.61 144.749 1540.35 131.571L1538.54 132.429C1544.95 145.918 1554.07 156.563 1565.9 164.336L1567 162.664ZM1540.35 131.571C1534.09 118.385 1530.95 103.701 1530.95 87.5H1528.95C1528.95 103.966 1532.14 118.948 1538.54 132.429L1540.35 131.571ZM1530.95 87.5C1530.95 71.2991 1534.09 56.6146 1540.35 43.4291L1538.54 42.5709C1532.14 56.0521 1528.95 71.0342 1528.95 87.5H1530.95ZM1540.35 43.4291C1546.61 30.2512 1555.49 19.8959 1567 12.3357L1565.9 10.6643C1554.07 18.4374 1544.95 29.0821 1538.54 42.5709L1540.35 43.4291ZM1566.99 12.3393C1578.65 4.78783 1592.12 0.999998 1607.45 0.999998V-1C1591.77 -1 1577.91 2.87884 1565.9 10.6607L1566.99 12.3393ZM1607.45 0.999998C1622.77 0.999998 1636.16 4.78786 1647.65 12.3357L1648.75 10.6643C1636.9 2.87881 1623.12 -1 1607.45 -1V0.999998ZM1647.65 12.3393C1659.32 19.9003 1668.29 30.2549 1674.54 43.4291L1676.35 42.5709C1669.94 29.0784 1660.74 18.433 1648.74 10.6607L1647.65 12.3393ZM1674.54 43.4291C1680.81 56.6146 1683.95 71.2991 1683.95 87.5H1685.95C1685.95 71.0342 1682.75 56.0521 1676.35 42.5709L1674.54 43.4291ZM1683.95 87.5C1683.95 103.701 1680.81 118.385 1674.54 131.571L1676.35 132.429C1682.75 118.948 1685.95 103.966 1685.95 87.5H1683.95ZM1674.54 131.571C1668.29 144.745 1659.32 155.1 1647.65 162.661L1648.74 164.339C1660.74 156.567 1669.94 145.922 1676.35 132.429L1674.54 131.571ZM1647.65 162.664C1636.16 170.212 1622.77 174 1607.45 174V176C1623.12 176 1636.9 172.121 1648.75 164.336L1647.65 162.664ZM1607.45 166C1618.49 166 1628.05 162.766 1636.08 156.278L1634.82 154.722C1627.18 160.901 1618.07 164 1607.45 164V166ZM1636.07 156.284C1644.24 149.814 1650.42 140.73 1654.64 129.091L1652.76 128.409C1648.64 139.77 1642.65 148.519 1634.83 154.716L1636.07 156.284ZM1654.64 129.086C1658.85 117.286 1660.95 103.418 1660.95 87.5H1658.95C1658.95 103.249 1656.87 116.88 1652.76 128.414L1654.64 129.086ZM1660.95 87.5C1660.95 71.583 1658.85 57.7954 1654.64 46.1593L1652.76 46.8406C1656.87 58.2046 1658.95 71.7504 1658.95 87.5H1660.95ZM1654.64 46.1637C1650.42 34.3586 1644.24 25.1882 1636.07 18.7159L1634.83 20.284C1642.65 26.4784 1648.64 35.3081 1652.76 46.8363L1654.64 46.1637ZM1636.08 18.7224C1628.05 12.2339 1618.49 8.99999 1607.45 8.99999V11C1618.07 11 1627.18 14.0994 1634.82 20.2776L1636.08 18.7224ZM1607.45 8.99999C1596.4 8.99999 1586.76 12.2338 1578.58 18.7159L1579.82 20.284C1587.63 14.0995 1596.82 11 1607.45 11V8.99999ZM1578.57 18.7224C1570.56 25.1951 1564.47 34.3636 1560.26 46.1637L1562.14 46.8363C1566.26 35.303 1572.17 26.4715 1579.83 20.2776L1578.57 18.7224ZM1560.26 46.1593C1556.04 57.7954 1553.95 71.583 1553.95 87.5H1555.95C1555.95 71.7504 1558.02 58.2046 1562.14 46.8406L1560.26 46.1593ZM1553.95 87.5C1553.95 103.418 1556.04 117.286 1560.26 129.086L1562.14 128.414C1558.02 116.88 1555.95 103.249 1555.95 87.5H1553.95ZM1560.26 129.091C1564.47 140.725 1570.57 149.807 1578.57 156.278L1579.83 154.722C1572.16 148.526 1566.26 139.775 1562.14 128.409L1560.26 129.091ZM1578.58 156.284C1586.76 162.766 1596.4 166 1607.45 166V164C1596.82 164 1587.63 160.9 1579.82 154.716L1578.58 156.284ZM1732.22 38.75L1733 38.1235L1731.22 35.9096V38.75H1732.22ZM1732.22 170V171H1733.22V170H1732.22ZM1722.22 170H1721.22V171H1722.22V170ZM1716.97 16.5L1716.17 17.1097L1716.18 17.1191L1716.19 17.1283L1716.97 16.5ZM1697.22 9.99999H1696.22V11H1697.22V9.99999ZM1697.22 4.99999V3.99999H1696.22V4.99999H1697.22ZM1732.97 8.74999L1733.39 7.84453L1733.39 7.84453L1732.97 8.74999ZM1747.22 20L1748 19.3731L1747.99 19.3664L1747.99 19.3598L1747.22 20ZM1834.72 128.75L1833.94 129.377L1835.72 131.588V128.75H1834.72ZM1834.72 4.99999V3.99999H1833.72V4.99999H1834.72ZM1844.72 4.99999H1845.72V3.99999H1844.72V4.99999ZM1844.72 172.5V173.5H1845.72V172.5H1844.72ZM1839.72 172.5L1838.94 173.126L1839.24 173.5H1839.72V172.5ZM1731.22 38.75V170H1733.22V38.75H1731.22ZM1732.22 169H1722.22V171H1732.22V169ZM1723.22 170V35H1721.22V170H1723.22ZM1723.22 35C1723.22 26.8686 1721.44 20.4462 1717.74 15.8717L1716.19 17.1283C1719.49 21.2205 1721.22 27.1314 1721.22 35H1723.22ZM1717.76 15.8903C1714.16 11.2078 1708.04 8.99999 1699.72 8.99999V11C1707.73 11 1713.11 13.1255 1716.17 17.1097L1717.76 15.8903ZM1699.72 8.99999H1697.22V11H1699.72V8.99999ZM1698.22 9.99999V4.99999H1696.22V9.99999H1698.22ZM1697.22 5.99999H1713.47V3.99999H1697.22V5.99999ZM1713.47 5.99999C1721.03 5.99999 1727.38 7.23352 1732.54 9.65545L1733.39 7.84453C1727.89 5.26646 1721.24 3.99999 1713.47 3.99999V5.99999ZM1732.54 9.65545C1737.73 12.087 1742.37 15.7408 1746.45 20.6402L1747.99 19.3598C1743.73 14.2592 1738.87 10.413 1733.39 7.84453L1732.54 9.65545ZM1746.44 20.6269L1833.94 129.377L1835.5 128.123L1748 19.3731L1746.44 20.6269ZM1835.72 128.75V4.99999H1833.72V128.75H1835.72ZM1834.72 5.99999H1844.72V3.99999H1834.72V5.99999ZM1843.72 4.99999V172.5H1845.72V4.99999H1843.72ZM1844.72 171.5H1839.72V173.5H1844.72V171.5ZM1840.5 171.874L1733 38.1235L1731.44 39.3765L1838.94 173.126L1840.5 171.874Z" fill="#F90707" fill-opacity="0.47" mask="url(#path-1-outside-1_174_28)"/>
<defs>
<linearGradient id="paint0_linear_174_28" x1="-21" y1="85" x2="1866" y2="85" gradientUnits="userSpaceOnUse">
<stop stop-color="#EA1B1B" stop-opacity="0.9"/>
<stop offset="1" stop-color="#840F0F"/>
</linearGradient>
</defs>
</svg>
