<svg width="512" height="512" viewBox="0 0 512 512" fill="none" xmlns="http://www.w3.org/2000/svg">
<path fill-rule="evenodd" clip-rule="evenodd" d="M143 0C64.0233 0 0 64.0233 0 143V369C0 447.977 64.0233 512 143 512H369C447.977 512 512 447.977 512 369V143C512 64.0233 447.977 0 369 0H143ZM275.146 126.376L286.556 120.211L364.473 78.6555C365.748 77.9754 367.042 77.2967 368.345 76.6129C376.762 72.1971 385.586 67.5678 392.331 60.9783C404.516 49.0755 403.112 39.3983 386.606 36.4695C367.676 33.1103 344.136 33.6659 326.111 40.8731C320.224 43.2264 314.557 46.3386 308.948 49.4193C307.161 50.4008 305.38 51.379 303.599 52.3285L131.7 144.051C131.294 144.269 130.936 144.506 130.603 144.726C129.446 145.491 128.603 146.049 127.142 144.898C125.851 143.881 124.181 143.122 122.576 142.392C121.904 142.087 121.243 141.786 120.626 141.474L58.1675 108.471C57.1296 107.966 56.1169 107.565 54.9593 107.453L54.664 107.421C52.69 107.299 33.9863 117.663 31.1346 119.436C31.8753 120.345 32.7716 121.128 33.6624 121.905C34.0262 122.223 34.3891 122.54 34.7402 122.864L65.8054 152.341C66.1548 152.67 66.859 153.318 67.7948 154.178C72.6736 158.663 83.848 168.935 83.8671 170.136L68.4236 178.421C67.7298 178.792 67.0292 179.189 66.322 179.59C64.3662 180.7 62.3595 181.838 60.3045 182.52L44.8478 176.186C43.49 175.583 42.1304 174.952 40.7657 174.319C36.4515 172.317 32.0858 170.291 27.561 169.016L27.2606 168.927C27.0018 168.853 26.7717 168.82 26.5054 168.79L26.1834 168.753C24.6252 168.644 22.8735 169.611 21.396 170.428C21.0952 170.594 20.8059 170.754 20.5318 170.897L11.3067 175.725C9.83069 176.453 8.30658 176.986 6.72331 177.425C10.8102 180.64 15.2349 183.354 19.6604 186.068C20.1734 186.382 20.6863 186.697 21.1987 187.012L51.5661 205.528C51.8608 205.696 52.1442 205.858 52.4178 206.015C56.9033 208.586 58.7535 209.646 64.484 208.97C70.5228 208.259 76.4721 207.008 82.4179 205.756C83.7822 205.469 85.1462 205.182 86.5112 204.902C119.614 198.099 161.119 187.076 191.165 171.079L210.761 160.646C211.728 160.132 212.72 159.571 213.729 159.001C216.518 157.426 219.434 155.779 222.302 154.83L224.181 156.973C227.466 156.507 230.784 156.34 234.101 156.172C235.471 156.103 236.84 156.034 238.207 155.944L272.903 153.664C273.923 153.573 274.993 153.498 276.088 153.422C279.665 153.172 283.501 152.904 286.691 151.986C295.376 149.486 290.409 125.984 275.146 126.376Z" fill="url(#paint0_radial_120_32695)"/>
<path d="M126.665 300.12V193.225L171.091 260.826C171.092 260.828 171.093 260.83 171.095 260.832C173.039 263.829 175.778 265.51 179.213 265.51C182.914 265.51 185.882 263.921 187.886 260.832C187.888 260.83 187.889 260.828 187.89 260.826L232.094 193.563V300.12C232.094 302.389 232.664 304.458 234.153 305.945C235.642 307.432 237.712 308 239.982 308C242.225 308 244.273 307.427 245.742 305.932C247.204 304.443 247.759 302.38 247.759 300.12V168.88C247.759 166.666 247.273 164.632 245.949 163.142C244.585 161.606 242.652 161 240.538 161C236.764 161 233.775 162.629 231.845 165.819L179.649 245.781L127.236 165.801C125.279 162.702 122.452 161 118.888 161C116.618 161 114.548 161.568 113.059 163.055C111.569 164.542 111 166.611 111 168.88V300.12C111 302.389 111.569 304.458 113.059 305.945C114.548 307.432 116.618 308 118.888 308C121.131 308 123.179 307.427 124.647 305.932C126.11 304.443 126.665 302.38 126.665 300.12ZM293.831 172.561L293.824 172.568C285.951 180.43 282.238 192.824 282.238 209.261V259.739C282.238 276.041 285.994 288.392 293.935 296.321C301.875 304.251 314.241 308 330.565 308H357.228C372.128 308 383.392 304.665 390.526 297.542L390.534 297.534C397.659 290.339 401 279.059 401 264.176V244.429C401 242.197 400.44 240.156 398.969 238.687C397.5 237.221 395.461 236.661 393.231 236.66C393.228 236.66 393.226 236.66 393.223 236.66L363.02 236.438L363.012 236.438H363.005C360.772 236.438 358.729 236.997 357.259 238.465C355.788 239.934 355.228 241.975 355.228 244.207C355.228 246.467 355.783 248.53 357.246 250.019C358.712 251.512 360.756 252.085 362.996 252.087C362.999 252.087 363.002 252.087 363.005 252.087L385.335 252.291V264.176C385.335 271.746 384.418 277.468 382.716 281.478C381.073 285.351 378.315 288.08 374.346 289.731L374.335 289.736C370.315 291.437 364.655 292.351 357.228 292.351H330.565C322.112 292.351 315.61 291.255 310.93 289.193C306.35 287.175 303.086 283.915 301.066 279.343C299.001 274.671 297.903 268.179 297.903 259.739V209.261C297.903 200.82 298.965 194.321 300.961 189.641C302.983 185.001 306.241 181.757 310.796 179.817L310.807 179.812L310.819 179.807C315.5 177.744 321.967 176.649 330.343 176.649H357.228C367.389 176.649 374.232 178.419 378.211 181.546L378.219 181.553L378.228 181.559C382.066 184.512 384.5 190.118 385.005 199.057L385.007 199.095L385.011 199.132C385.223 201.382 385.943 203.373 387.42 204.795C388.916 206.234 390.909 206.824 393.112 206.824C395.372 206.824 397.423 206.213 398.884 204.66C400.462 203.065 400.908 200.888 400.661 198.561C399.97 185.784 396.193 176.117 388.962 170.017C381.78 163.885 371.077 161 357.228 161H330.343C314.094 161 301.77 164.712 293.831 172.561Z" fill="black" stroke="black" stroke-width="4"/>
<path d="M94.3515 322.357C92.7838 322.357 92 321.551 92 319.939V318.349C92 316.783 92.7838 316 94.3515 316H95.9422C97.4868 316 98.2591 316.783 98.2591 318.349V319.939C98.2591 321.551 97.4868 322.357 95.9422 322.357H94.3515ZM95.1469 373.18C94.5705 373.18 94.121 373.019 93.7982 372.696C93.4754 372.374 93.3141 371.925 93.3141 371.349V330.442C93.3141 329.866 93.4754 329.417 93.7982 329.094C94.121 328.772 94.5705 328.611 95.1469 328.611C95.7001 328.611 96.1382 328.772 96.4609 329.094C96.7837 329.417 96.9451 329.866 96.9451 330.442V371.349C96.9451 371.925 96.7837 372.374 96.4609 372.696C96.1382 373.019 95.7001 373.18 95.1469 373.18Z" fill="black"/>
<path d="M111.694 373.18C110.472 373.18 109.862 372.57 109.862 371.349V342.327C109.862 341.129 110.472 340.53 111.694 340.53C112.893 340.53 113.493 341.129 113.493 342.327V345.644C115.683 342.235 119.648 340.53 125.388 340.53H127.325C131.636 340.53 134.783 341.532 136.765 343.536C138.771 345.517 139.774 348.661 139.774 352.968V371.349C139.774 372.57 139.175 373.18 137.976 373.18C136.754 373.18 136.143 372.57 136.143 371.349V352.968C136.143 349.675 135.486 347.383 134.172 346.093C132.881 344.803 130.598 344.158 127.325 344.158H125.388C121.815 344.158 119.002 344.722 116.951 345.851C114.899 346.98 113.746 348.742 113.493 351.137V371.349C113.493 372.57 112.893 373.18 111.694 373.18Z" fill="black"/>
<path d="M163.624 373.18C159.313 373.18 156.155 372.19 154.149 370.209C152.144 368.205 151.141 365.061 151.141 360.777V352.968C151.141 348.615 152.144 345.448 154.149 343.467C156.155 341.463 159.313 340.484 163.624 340.53H169.296C173.607 340.53 176.754 341.532 178.736 343.536C180.742 345.517 181.745 348.661 181.745 352.968V360.708C181.745 365.015 180.742 368.17 178.736 370.174C176.754 372.178 173.607 373.18 169.296 373.18H163.624ZM154.772 360.777C154.772 364.024 155.417 366.305 156.708 367.618C158.022 368.907 160.328 369.552 163.624 369.552H169.296C172.592 369.552 174.886 368.907 176.177 367.618C177.468 366.305 178.114 364.001 178.114 360.708V352.968C178.114 349.675 177.468 347.383 176.177 346.093C174.886 344.803 172.592 344.158 169.296 344.158H163.624C161.411 344.135 159.659 344.4 158.368 344.953C157.077 345.506 156.155 346.427 155.602 347.717C155.048 349.007 154.772 350.757 154.772 352.968V360.777Z" fill="black"/>
<path d="M204.949 371.798C204.695 372.351 204.384 372.719 204.015 372.904C203.646 373.088 203.22 373.18 202.736 373.18C201.721 373.18 201.007 372.708 200.592 371.764L187.762 343.053C187.278 341.924 187.613 341.141 188.765 340.703C189.849 340.242 190.633 340.565 191.117 341.671L203.912 370.278H201.698L215.323 341.636C215.577 341.106 215.911 340.761 216.326 340.6C216.741 340.438 217.214 340.473 217.744 340.703C218.874 341.21 219.185 342.016 218.678 343.122L204.949 371.798Z" fill="black"/>
<path d="M236.086 373.18C232.49 373.18 229.85 372.351 228.167 370.692C226.507 369.011 225.678 366.374 225.678 362.781C225.678 359.187 226.519 356.55 228.202 354.869C229.885 353.187 232.513 352.346 236.086 352.346H251.821C251.774 349.306 251.083 347.187 249.746 345.989C248.432 344.769 246.184 344.158 243.002 344.158H238.991C236.063 344.158 233.919 344.469 232.559 345.091C231.199 345.713 230.357 346.772 230.035 348.27C229.873 348.845 229.654 349.272 229.378 349.548C229.124 349.801 228.709 349.928 228.133 349.928C227.533 349.928 227.061 349.767 226.715 349.444C226.392 349.099 226.277 348.638 226.369 348.062C226.669 345.436 227.856 343.525 229.931 342.327C232.029 341.129 235.049 340.53 238.991 340.53H243.002C247.314 340.53 250.46 341.532 252.443 343.536C254.449 345.517 255.452 348.661 255.452 352.968V371.349C255.452 372.57 254.852 373.18 253.653 373.18C252.432 373.18 251.821 372.57 251.821 371.349V367.928C249.607 371.43 245.654 373.18 239.959 373.18H236.086ZM236.086 369.552H239.959C242.196 369.552 244.155 369.31 245.838 368.827C247.544 368.32 248.916 367.514 249.953 366.408C250.991 365.303 251.613 363.829 251.821 361.986V355.974H236.086C233.527 355.974 231.752 356.469 230.761 357.46C229.793 358.427 229.308 360.201 229.308 362.781C229.308 365.337 229.793 367.111 230.761 368.101C231.752 369.069 233.527 369.552 236.086 369.552Z" fill="black"/>
<path d="M274.93 373.111C272.094 373.111 269.927 372.512 268.429 371.314C266.93 370.094 266.031 368.239 265.731 365.752C265.662 365.153 265.789 364.692 266.112 364.37C266.434 364.024 266.907 363.852 267.529 363.852C268.106 363.852 268.532 364.001 268.809 364.301C269.109 364.6 269.305 365.049 269.397 365.648C269.604 367.076 270.123 368.078 270.953 368.654C271.806 369.207 273.132 369.483 274.93 369.483H286.272C288.416 369.483 289.892 369.08 290.699 368.274C291.505 367.468 291.909 365.994 291.909 363.852C291.909 361.686 291.505 360.201 290.699 359.395C289.892 358.588 288.416 358.185 286.272 358.185H275.068C272.071 358.185 269.835 357.471 268.359 356.043C266.907 354.592 266.181 352.37 266.181 349.375C266.181 346.312 266.907 344.066 268.359 342.638C269.812 341.187 272.048 340.461 275.068 340.461H285.926C291.137 340.461 294.03 342.765 294.606 347.371C294.698 347.97 294.572 348.442 294.226 348.788C293.903 349.11 293.442 349.272 292.843 349.272C292.266 349.272 291.828 349.122 291.529 348.822C291.252 348.523 291.056 348.085 290.941 347.509C290.779 346.22 290.307 345.333 289.523 344.849C288.762 344.342 287.563 344.089 285.926 344.089H275.068C273.062 344.089 271.679 344.458 270.918 345.195C270.181 345.932 269.812 347.325 269.812 349.375C269.812 351.333 270.192 352.692 270.953 353.452C271.714 354.189 273.085 354.558 275.068 354.558H286.272C289.454 354.558 291.794 355.318 293.292 356.838C294.791 358.335 295.54 360.673 295.54 363.852C295.54 367.007 294.791 369.345 293.292 370.865C291.794 372.362 289.454 373.111 286.272 373.111H274.93Z" fill="black"/>
<path d="M314.635 387C311.615 387 309.379 386.274 307.926 384.823C306.497 383.372 305.782 381.115 305.782 378.052C305.782 376.854 306.382 376.255 307.581 376.255C308.802 376.255 309.413 376.854 309.413 378.052C309.413 380.125 309.782 381.53 310.52 382.267C311.258 383.004 312.629 383.372 314.635 383.372H326.6C328.629 383.372 330.012 383.004 330.75 382.267C331.487 381.53 331.856 380.125 331.856 378.052V368.55C330.542 370.278 328.894 371.487 326.911 372.178C324.929 372.869 322.612 373.215 319.96 373.215H318.024C313.782 373.215 310.681 372.236 308.722 370.278C306.762 368.32 305.782 365.245 305.782 361.053V342.292C305.782 341.072 306.382 340.461 307.581 340.461C308.802 340.461 309.413 341.072 309.413 342.292V361.053C309.413 364.255 310.036 366.477 311.281 367.721C312.549 368.965 314.796 369.587 318.024 369.587H319.96C323.995 369.587 326.98 368.884 328.917 367.479C330.876 366.051 331.856 363.909 331.856 361.053V342.292C331.856 341.072 332.456 340.461 333.654 340.461C334.876 340.461 335.487 341.072 335.487 342.292V378.052C335.487 381.115 334.761 383.372 333.309 384.823C331.879 386.274 329.643 387 326.6 387H314.635Z" fill="black"/>
<path d="M359.965 373.18C355.654 373.18 352.496 372.19 350.49 370.209C348.484 368.205 347.481 365.061 347.481 360.777V352.968C347.481 348.615 348.484 345.448 350.49 343.467C352.496 341.463 355.654 340.484 359.965 340.53H365.636C369.947 340.53 373.094 341.532 375.077 343.536C377.083 345.517 378.085 348.661 378.085 352.968V360.708C378.085 365.015 377.083 368.17 375.077 370.174C373.094 372.178 369.947 373.18 365.636 373.18H359.965ZM351.112 360.777C351.112 364.024 351.758 366.305 353.049 367.618C354.363 368.907 356.668 369.552 359.965 369.552H365.636C368.933 369.552 371.227 368.907 372.518 367.618C373.809 366.305 374.454 364.001 374.454 360.708V352.968C374.454 349.675 373.809 347.383 372.518 346.093C371.227 344.803 368.933 344.158 365.636 344.158H359.965C357.752 344.135 356 344.4 354.709 344.953C353.418 345.506 352.496 346.427 351.942 347.717C351.389 349.007 351.112 350.757 351.112 352.968V360.777Z" fill="black"/>
<path d="M391.92 373.18C390.699 373.18 390.088 372.57 390.088 371.349V342.327C390.088 341.129 390.699 340.53 391.92 340.53C393.119 340.53 393.719 341.129 393.719 342.327V345.644C395.909 342.235 399.874 340.53 405.614 340.53H407.551C411.862 340.53 415.009 341.532 416.991 343.536C418.997 345.517 420 348.661 420 352.968V371.349C420 372.57 419.401 373.18 418.202 373.18C416.98 373.18 416.369 372.57 416.369 371.349V352.968C416.369 349.675 415.712 347.383 414.398 346.093C413.107 344.803 410.825 344.158 407.551 344.158H405.614C402.041 344.158 399.228 344.722 397.177 345.851C395.125 346.98 393.972 348.742 393.719 351.137V371.349C393.719 372.57 393.119 373.18 391.92 373.18Z" fill="black"/>
<defs>
<radialGradient id="paint0_radial_120_32695" cx="0" cy="0" r="1" gradientUnits="userSpaceOnUse" gradientTransform="translate(256 256) rotate(90) scale(256)">
<stop stop-color="#63EBF3" stop-opacity="0.34"/>
<stop offset="0.465" stop-color="#089CC2" stop-opacity="0.83"/>
<stop offset="1" stop-color="#161B22"/>
</radialGradient>
</defs>
</svg>
